<svg xmlns="http://www.w3.org/2000/svg" width="752" height="202">
  <rect x="0" y="0" width="752" height="202" fill="#ffffff"/>
  <text x="20" y="24" font-family="Consolas, monospace" font-size="14" fill="#111111">Q-learning Greedy Path</text>
<rect x="20" y="40" width="28" height="28" fill="#f5f5f5" stroke="#cccccc" stroke-width="1"/>
<rect x="48" y="40" width="28" height="28" fill="#f5f5f5" stroke="#cccccc" stroke-width="1"/>
<rect x="76" y="40" width="28" height="28" fill="#f5f5f5" stroke="#cccccc" stroke-width="1"/>
<rect x="104" y="40" width="28" height="28" fill="#f5f5f5" stroke="#cccccc" stroke-width="1"/>
<rect x="132" y="40" width="28" height="28" fill="#f5f5f5" stroke="#cccccc" stroke-width="1"/>
<rect x="160" y="40" width="28" height="28" fill="#f5f5f5" stroke="#cccccc" stroke-width="1"/>
<rect x="188" y="40" width="28" height="28" fill="#f5f5f5" stroke="#cccccc" stroke-width="1"/>
<rect x="216" y="40" width="28" height="28" fill="#f5f5f5" stroke="#cccccc" stroke-width="1"/>
<rect x="244" y="40" width="28" height="28" fill="#f5f5f5" stroke="#cccccc" stroke-width="1"/>
<rect x="272" y="40" width="28" height="28" fill="#f5f5f5" stroke="#cccccc" stroke-width="1"/>
<rect x="300" y="40" width="28" height="28" fill="#f5f5f5" stroke="#cccccc" stroke-width="1"/>
<rect x="328" y="40" width="28" height="28" fill="#f5f5f5" stroke="#cccccc" stroke-width="1"/>
<rect x="20" y="68" width="28" height="28" fill="#f5f5f5" stroke="#cccccc" stroke-width="1"/>
<rect x="48" y="68" width="28" height="28" fill="#f5f5f5" stroke="#cccccc" stroke-width="1"/>
<rect x="76" y="68" width="28" height="28" fill="#f5f5f5" stroke="#cccccc" stroke-width="1"/>
<rect x="104" y="68" width="28" height="28" fill="#f5f5f5" stroke="#cccccc" stroke-width="1"/>
<rect x="132" y="68" width="28" height="28" fill="#f5f5f5" stroke="#cccccc" stroke-width="1"/>
<rect x="160" y="68" width="28" height="28" fill="#f5f5f5" stroke="#cccccc" stroke-width="1"/>
<rect x="188" y="68" width="28" height="28" fill="#f5f5f5" stroke="#cccccc" stroke-width="1"/>
<rect x="216" y="68" width="28" height="28" fill="#f5f5f5" stroke="#cccccc" stroke-width="1"/>
<rect x="244" y="68" width="28" height="28" fill="#f5f5f5" stroke="#cccccc" stroke-width="1"/>
<rect x="272" y="68" width="28" height="28" fill="#f5f5f5" stroke="#cccccc" stroke-width="1"/>
<rect x="300" y="68" width="28" height="28" fill="#f5f5f5" stroke="#cccccc" stroke-width="1"/>
<rect x="328" y="68" width="28" height="28" fill="#f5f5f5" stroke="#cccccc" stroke-width="1"/>
<rect x="20" y="96" width="28" height="28" fill="#f5f5f5" stroke="#cccccc" stroke-width="1"/>
<circle cx="34.0" cy="110.0" r="4" fill="#111111"/>
<rect x="48" y="96" width="28" height="28" fill="#f5f5f5" stroke="#cccccc" stroke-width="1"/>
<circle cx="62.0" cy="110.0" r="4" fill="#111111"/>
<rect x="76" y="96" width="28" height="28" fill="#f5f5f5" stroke="#cccccc" stroke-width="1"/>
<circle cx="90.0" cy="110.0" r="4" fill="#111111"/>
<rect x="104" y="96" width="28" height="28" fill="#f5f5f5" stroke="#cccccc" stroke-width="1"/>
<circle cx="118.0" cy="110.0" r="4" fill="#111111"/>
<rect x="132" y="96" width="28" height="28" fill="#f5f5f5" stroke="#cccccc" stroke-width="1"/>
<circle cx="146.0" cy="110.0" r="4" fill="#111111"/>
<rect x="160" y="96" width="28" height="28" fill="#f5f5f5" stroke="#cccccc" stroke-width="1"/>
<circle cx="174.0" cy="110.0" r="4" fill="#111111"/>
<rect x="188" y="96" width="28" height="28" fill="#f5f5f5" stroke="#cccccc" stroke-width="1"/>
<circle cx="202.0" cy="110.0" r="4" fill="#111111"/>
<rect x="216" y="96" width="28" height="28" fill="#f5f5f5" stroke="#cccccc" stroke-width="1"/>
<circle cx="230.0" cy="110.0" r="4" fill="#111111"/>
<rect x="244" y="96" width="28" height="28" fill="#f5f5f5" stroke="#cccccc" stroke-width="1"/>
<circle cx="258.0" cy="110.0" r="4" fill="#111111"/>
<rect x="272" y="96" width="28" height="28" fill="#f5f5f5" stroke="#cccccc" stroke-width="1"/>
<circle cx="286.0" cy="110.0" r="4" fill="#111111"/>
<rect x="300" y="96" width="28" height="28" fill="#f5f5f5" stroke="#cccccc" stroke-width="1"/>
<circle cx="314.0" cy="110.0" r="4" fill="#111111"/>
<rect x="328" y="96" width="28" height="28" fill="#f5f5f5" stroke="#cccccc" stroke-width="1"/>
<circle cx="342.0" cy="110.0" r="4" fill="#111111"/>
<rect x="20" y="124" width="28" height="28" fill="#90be6d" stroke="#cccccc" stroke-width="1"/>
<circle cx="34.0" cy="138.0" r="4" fill="#111111"/>
<rect x="48" y="124" width="28" height="28" fill="#f94144" stroke="#cccccc" stroke-width="1"/>
<rect x="76" y="124" width="28" height="28" fill="#f94144" stroke="#cccccc" stroke-width="1"/>
<rect x="104" y="124" width="28" height="28" fill="#f94144" stroke="#cccccc" stroke-width="1"/>
<rect x="132" y="124" width="28" height="28" fill="#f94144" stroke="#cccccc" stroke-width="1"/>
<rect x="160" y="124" width="28" height="28" fill="#f94144" stroke="#cccccc" stroke-width="1"/>
<rect x="188" y="124" width="28" height="28" fill="#f94144" stroke="#cccccc" stroke-width="1"/>
<rect x="216" y="124" width="28" height="28" fill="#f94144" stroke="#cccccc" stroke-width="1"/>
<rect x="244" y="124" width="28" height="28" fill="#f94144" stroke="#cccccc" stroke-width="1"/>
<rect x="272" y="124" width="28" height="28" fill="#f94144" stroke="#cccccc" stroke-width="1"/>
<rect x="300" y="124" width="28" height="28" fill="#f94144" stroke="#cccccc" stroke-width="1"/>
<rect x="328" y="124" width="28" height="28" fill="#577590" stroke="#cccccc" stroke-width="1"/>
<circle cx="342.0" cy="138.0" r="4" fill="#111111"/>
<line x1="34.0" y1="138.0" x2="34.0" y2="110.0" stroke="#111111" stroke-width="1.5"/>
<line x1="34.0" y1="110.0" x2="62.0" y2="110.0" stroke="#111111" stroke-width="1.5"/>
<line x1="62.0" y1="110.0" x2="90.0" y2="110.0" stroke="#111111" stroke-width="1.5"/>
<line x1="90.0" y1="110.0" x2="118.0" y2="110.0" stroke="#111111" stroke-width="1.5"/>
<line x1="118.0" y1="110.0" x2="146.0" y2="110.0" stroke="#111111" stroke-width="1.5"/>
<line x1="146.0" y1="110.0" x2="174.0" y2="110.0" stroke="#111111" stroke-width="1.5"/>
<line x1="174.0" y1="110.0" x2="202.0" y2="110.0" stroke="#111111" stroke-width="1.5"/>
<line x1="202.0" y1="110.0" x2="230.0" y2="110.0" stroke="#111111" stroke-width="1.5"/>
<line x1="230.0" y1="110.0" x2="258.0" y2="110.0" stroke="#111111" stroke-width="1.5"/>
<line x1="258.0" y1="110.0" x2="286.0" y2="110.0" stroke="#111111" stroke-width="1.5"/>
<line x1="286.0" y1="110.0" x2="314.0" y2="110.0" stroke="#111111" stroke-width="1.5"/>
<line x1="314.0" y1="110.0" x2="342.0" y2="110.0" stroke="#111111" stroke-width="1.5"/>
<line x1="342.0" y1="110.0" x2="342.0" y2="138.0" stroke="#111111" stroke-width="1.5"/>
  <text x="386" y="24" font-family="Consolas, monospace" font-size="14" fill="#111111">SARSA Greedy Path</text>
<rect x="386" y="40" width="28" height="28" fill="#f5f5f5" stroke="#cccccc" stroke-width="1"/>
<circle cx="400.0" cy="54.0" r="4" fill="#111111"/>
<rect x="414" y="40" width="28" height="28" fill="#f5f5f5" stroke="#cccccc" stroke-width="1"/>
<circle cx="428.0" cy="54.0" r="4" fill="#111111"/>
<rect x="442" y="40" width="28" height="28" fill="#f5f5f5" stroke="#cccccc" stroke-width="1"/>
<circle cx="456.0" cy="54.0" r="4" fill="#111111"/>
<rect x="470" y="40" width="28" height="28" fill="#f5f5f5" stroke="#cccccc" stroke-width="1"/>
<circle cx="484.0" cy="54.0" r="4" fill="#111111"/>
<rect x="498" y="40" width="28" height="28" fill="#f5f5f5" stroke="#cccccc" stroke-width="1"/>
<circle cx="512.0" cy="54.0" r="4" fill="#111111"/>
<rect x="526" y="40" width="28" height="28" fill="#f5f5f5" stroke="#cccccc" stroke-width="1"/>
<circle cx="540.0" cy="54.0" r="4" fill="#111111"/>
<rect x="554" y="40" width="28" height="28" fill="#f5f5f5" stroke="#cccccc" stroke-width="1"/>
<circle cx="568.0" cy="54.0" r="4" fill="#111111"/>
<rect x="582" y="40" width="28" height="28" fill="#f5f5f5" stroke="#cccccc" stroke-width="1"/>
<circle cx="596.0" cy="54.0" r="4" fill="#111111"/>
<rect x="610" y="40" width="28" height="28" fill="#f5f5f5" stroke="#cccccc" stroke-width="1"/>
<circle cx="624.0" cy="54.0" r="4" fill="#111111"/>
<rect x="638" y="40" width="28" height="28" fill="#f5f5f5" stroke="#cccccc" stroke-width="1"/>
<circle cx="652.0" cy="54.0" r="4" fill="#111111"/>
<rect x="666" y="40" width="28" height="28" fill="#f5f5f5" stroke="#cccccc" stroke-width="1"/>
<circle cx="680.0" cy="54.0" r="4" fill="#111111"/>
<rect x="694" y="40" width="28" height="28" fill="#f5f5f5" stroke="#cccccc" stroke-width="1"/>
<circle cx="708.0" cy="54.0" r="4" fill="#111111"/>
<rect x="386" y="68" width="28" height="28" fill="#f5f5f5" stroke="#cccccc" stroke-width="1"/>
<circle cx="400.0" cy="82.0" r="4" fill="#111111"/>
<rect x="414" y="68" width="28" height="28" fill="#f5f5f5" stroke="#cccccc" stroke-width="1"/>
<rect x="442" y="68" width="28" height="28" fill="#f5f5f5" stroke="#cccccc" stroke-width="1"/>
<rect x="470" y="68" width="28" height="28" fill="#f5f5f5" stroke="#cccccc" stroke-width="1"/>
<rect x="498" y="68" width="28" height="28" fill="#f5f5f5" stroke="#cccccc" stroke-width="1"/>
<rect x="526" y="68" width="28" height="28" fill="#f5f5f5" stroke="#cccccc" stroke-width="1"/>
<rect x="554" y="68" width="28" height="28" fill="#f5f5f5" stroke="#cccccc" stroke-width="1"/>
<rect x="582" y="68" width="28" height="28" fill="#f5f5f5" stroke="#cccccc" stroke-width="1"/>
<rect x="610" y="68" width="28" height="28" fill="#f5f5f5" stroke="#cccccc" stroke-width="1"/>
<rect x="638" y="68" width="28" height="28" fill="#f5f5f5" stroke="#cccccc" stroke-width="1"/>
<rect x="666" y="68" width="28" height="28" fill="#f5f5f5" stroke="#cccccc" stroke-width="1"/>
<rect x="694" y="68" width="28" height="28" fill="#f5f5f5" stroke="#cccccc" stroke-width="1"/>
<circle cx="708.0" cy="82.0" r="4" fill="#111111"/>
<rect x="386" y="96" width="28" height="28" fill="#f5f5f5" stroke="#cccccc" stroke-width="1"/>
<circle cx="400.0" cy="110.0" r="4" fill="#111111"/>
<rect x="414" y="96" width="28" height="28" fill="#f5f5f5" stroke="#cccccc" stroke-width="1"/>
<rect x="442" y="96" width="28" height="28" fill="#f5f5f5" stroke="#cccccc" stroke-width="1"/>
<rect x="470" y="96" width="28" height="28" fill="#f5f5f5" stroke="#cccccc" stroke-width="1"/>
<rect x="498" y="96" width="28" height="28" fill="#f5f5f5" stroke="#cccccc" stroke-width="1"/>
<rect x="526" y="96" width="28" height="28" fill="#f5f5f5" stroke="#cccccc" stroke-width="1"/>
<rect x="554" y="96" width="28" height="28" fill="#f5f5f5" stroke="#cccccc" stroke-width="1"/>
<rect x="582" y="96" width="28" height="28" fill="#f5f5f5" stroke="#cccccc" stroke-width="1"/>
<rect x="610" y="96" width="28" height="28" fill="#f5f5f5" stroke="#cccccc" stroke-width="1"/>
<rect x="638" y="96" width="28" height="28" fill="#f5f5f5" stroke="#cccccc" stroke-width="1"/>
<rect x="666" y="96" width="28" height="28" fill="#f5f5f5" stroke="#cccccc" stroke-width="1"/>
<rect x="694" y="96" width="28" height="28" fill="#f5f5f5" stroke="#cccccc" stroke-width="1"/>
<circle cx="708.0" cy="110.0" r="4" fill="#111111"/>
<rect x="386" y="124" width="28" height="28" fill="#90be6d" stroke="#cccccc" stroke-width="1"/>
<circle cx="400.0" cy="138.0" r="4" fill="#111111"/>
<rect x="414" y="124" width="28" height="28" fill="#f94144" stroke="#cccccc" stroke-width="1"/>
<rect x="442" y="124" width="28" height="28" fill="#f94144" stroke="#cccccc" stroke-width="1"/>
<rect x="470" y="124" width="28" height="28" fill="#f94144" stroke="#cccccc" stroke-width="1"/>
<rect x="498" y="124" width="28" height="28" fill="#f94144" stroke="#cccccc" stroke-width="1"/>
<rect x="526" y="124" width="28" height="28" fill="#f94144" stroke="#cccccc" stroke-width="1"/>
<rect x="554" y="124" width="28" height="28" fill="#f94144" stroke="#cccccc" stroke-width="1"/>
<rect x="582" y="124" width="28" height="28" fill="#f94144" stroke="#cccccc" stroke-width="1"/>
<rect x="610" y="124" width="28" height="28" fill="#f94144" stroke="#cccccc" stroke-width="1"/>
<rect x="638" y="124" width="28" height="28" fill="#f94144" stroke="#cccccc" stroke-width="1"/>
<rect x="666" y="124" width="28" height="28" fill="#f94144" stroke="#cccccc" stroke-width="1"/>
<rect x="694" y="124" width="28" height="28" fill="#577590" stroke="#cccccc" stroke-width="1"/>
<circle cx="708.0" cy="138.0" r="4" fill="#111111"/>
<line x1="400.0" y1="138.0" x2="400.0" y2="110.0" stroke="#111111" stroke-width="1.5"/>
<line x1="400.0" y1="110.0" x2="400.0" y2="82.0" stroke="#111111" stroke-width="1.5"/>
<line x1="400.0" y1="82.0" x2="400.0" y2="54.0" stroke="#111111" stroke-width="1.5"/>
<line x1="400.0" y1="54.0" x2="428.0" y2="54.0" stroke="#111111" stroke-width="1.5"/>
<line x1="428.0" y1="54.0" x2="456.0" y2="54.0" stroke="#111111" stroke-width="1.5"/>
<line x1="456.0" y1="54.0" x2="484.0" y2="54.0" stroke="#111111" stroke-width="1.5"/>
<line x1="484.0" y1="54.0" x2="512.0" y2="54.0" stroke="#111111" stroke-width="1.5"/>
<line x1="512.0" y1="54.0" x2="540.0" y2="54.0" stroke="#111111" stroke-width="1.5"/>
<line x1="540.0" y1="54.0" x2="568.0" y2="54.0" stroke="#111111" stroke-width="1.5"/>
<line x1="568.0" y1="54.0" x2="596.0" y2="54.0" stroke="#111111" stroke-width="1.5"/>
<line x1="596.0" y1="54.0" x2="624.0" y2="54.0" stroke="#111111" stroke-width="1.5"/>
<line x1="624.0" y1="54.0" x2="652.0" y2="54.0" stroke="#111111" stroke-width="1.5"/>
<line x1="652.0" y1="54.0" x2="680.0" y2="54.0" stroke="#111111" stroke-width="1.5"/>
<line x1="680.0" y1="54.0" x2="708.0" y2="54.0" stroke="#111111" stroke-width="1.5"/>
<line x1="708.0" y1="54.0" x2="708.0" y2="82.0" stroke="#111111" stroke-width="1.5"/>
<line x1="708.0" y1="82.0" x2="708.0" y2="110.0" stroke="#111111" stroke-width="1.5"/>
<line x1="708.0" y1="110.0" x2="708.0" y2="138.0" stroke="#111111" stroke-width="1.5"/>
</svg>