<svg xmlns="http://www.w3.org/2000/svg" width="1200" height="480">
  <rect x="0" y="0" width="1200" height="480" fill="#ffffff"/>
  <text x="70" y="20" font-family="Consolas, monospace" font-size="16" fill="#111111">Total Reward per Episode</text>
  <line x1="70" y1="30" x2="70" y2="410" stroke="#333333"/>
  <line x1="70" y1="410" x2="1150" y2="410" stroke="#333333"/>
  <polyline points="70.00,330.96 72.16,52.50 74.33,111.01 76.49,109.18 78.66,85.69 80.82,47.30 82.99,49.97 85.15,43.64 87.31,90.05 89.48,84.43 91.64,40.27 93.81,64.17 95.97,62.21 98.14,37.31 100.30,41.67 102.46,82.74 104.63,48.56 106.79,38.16 108.96,38.58 111.12,43.08 113.29,41.39 115.45,61.78 117.62,44.63 119.78,39.00 121.94,34.08 124.11,41.25 126.27,37.03 128.44,87.38 130.60,60.10 132.77,33.52 134.93,38.30 137.09,32.11 139.26,59.67 141.42,51.80 143.59,37.59 145.75,40.83 147.92,32.11 150.08,89.77 152.24,69.38 154.41,56.02 156.57,37.59 158.74,33.52 160.90,69.24 163.07,51.80 165.23,32.39 167.39,38.44 169.56,39.56 171.72,38.16 173.89,32.81 176.05,32.53 178.22,71.35 180.38,35.77 182.55,33.23 184.71,31.83 186.87,39.00 189.04,35.06 191.20,35.20 193.37,82.32 195.53,40.13 197.70,32.67 199.86,50.53 202.02,39.70 204.19,32.81 206.35,52.78 208.52,33.52 210.68,36.89 212.85,32.53 215.01,32.81 217.17,49.83 219.34,35.48 221.50,31.55 223.67,33.80 225.83,31.55 228.00,68.96 230.16,35.06 232.32,34.22 234.49,49.41 236.65,32.95 238.82,33.80 240.98,34.92 243.15,48.28 245.31,69.24 247.47,33.09 249.64,33.94 251.80,35.77 253.97,49.97 256.13,33.52 258.30,32.81 260.46,47.16 262.63,31.13 264.79,48.00 266.95,34.78 269.12,50.67 271.28,48.85 273.45,33.52 275.61,50.11 277.78,31.97 279.94,34.64 282.10,30.84 284.27,32.25 286.43,35.20 288.60,32.39 290.76,33.80 292.93,46.88 295.09,33.66 297.25,45.47 299.42,53.06 301.58,47.72 303.75,33.38 305.91,31.13 308.08,32.25 310.24,45.89 312.40,65.30 314.57,31.83 316.73,32.53 318.90,48.99 321.06,32.67 323.23,32.67 325.39,30.84 327.56,33.09 329.72,33.66 331.88,64.74 334.05,31.13 336.21,31.83 338.38,60.94 340.54,31.41 342.71,34.36 344.87,47.16 347.03,32.53 349.20,48.42 351.36,31.27 353.53,31.13 355.69,49.97 357.86,30.56 360.02,31.41 362.18,32.25 364.35,31.97 366.51,31.69 368.68,33.80 370.84,31.83 373.01,32.25 375.17,33.80 377.33,60.80 379.50,32.39 381.66,30.98 383.83,51.10 385.99,31.55 388.16,45.89 390.32,31.55 392.48,31.41 394.65,31.27 396.81,31.97 398.98,32.95 401.14,30.28 403.31,32.95 405.47,31.83 407.64,33.80 409.80,30.84 411.96,45.75 414.13,31.83 416.29,32.11 418.46,30.98 420.62,46.03 422.79,30.98 424.95,32.25 427.11,33.09 429.28,30.28 431.44,32.39 433.61,31.41 435.77,31.83 437.94,31.41 440.10,32.53 442.26,30.56 444.43,31.69 446.59,30.00 448.76,31.83 450.92,30.56 453.09,30.56 455.25,33.38 457.41,33.38 459.58,32.67 461.74,60.80 463.91,32.81 466.07,30.70 468.24,30.56 470.40,31.27 472.57,30.98 474.73,33.09 476.89,30.84 479.06,31.27 481.22,32.95 483.39,30.98 485.55,31.97 487.72,45.89 489.88,32.53 492.04,32.39 494.21,46.03 496.37,46.17 498.54,45.61 500.70,31.13 502.87,61.50 505.03,32.95 507.19,46.88 509.36,30.56 511.52,33.09 513.69,30.98 515.85,30.42 518.02,47.16 520.18,30.00 522.34,44.06 524.51,31.69 526.67,30.28 528.84,30.56 531.00,30.42 533.17,30.42 535.33,46.60 537.49,31.83 539.66,46.60 541.82,34.50 543.99,30.42 546.15,30.42 548.32,30.70 550.48,30.56 552.65,31.13 554.81,30.56 556.97,30.00 559.14,32.11 561.30,30.00 563.47,61.64 565.63,48.28 567.80,30.28 569.96,46.88 572.12,46.31 574.29,45.47 576.45,32.11 578.62,46.03 580.78,31.27 582.95,30.56 585.11,30.00 587.27,30.00 589.44,32.25 591.60,30.56 593.77,30.28 595.93,30.56 598.10,30.00 600.26,30.00 602.42,31.97 604.59,30.00 606.75,30.28 608.92,30.56 611.08,31.55 613.25,30.56 615.41,30.14 617.58,30.14 619.74,30.84 621.90,30.98 624.07,30.00 626.23,30.00 628.40,30.84 630.56,30.00 632.73,30.98 634.89,31.83 637.05,45.05 639.22,45.47 641.38,30.70 643.55,44.91 645.71,30.00 647.88,30.14 650.04,45.89 652.20,45.47 654.37,30.56 656.53,30.00 658.70,30.00 660.86,30.42 663.03,61.78 665.19,30.00 667.35,30.84 669.52,30.00 671.68,30.00 673.85,30.00 676.01,30.00 678.18,44.34 680.34,30.28 682.51,30.14 684.67,30.98 686.83,30.28 689.00,30.00 691.16,44.34 693.33,30.28 695.49,32.11 697.66,44.91 699.82,60.52 701.98,30.56 704.15,60.94 706.31,30.28 708.48,30.28 710.64,30.00 712.81,30.00 714.97,30.84 717.13,30.56 719.30,30.56 721.46,30.00 723.63,30.00 725.79,45.61 727.96,30.28 730.12,44.06 732.28,30.00 734.45,30.56 736.61,72.61 738.78,31.55 740.94,30.00 743.11,30.28 745.27,30.84 747.43,44.34 749.60,30.28 751.76,30.00 753.93,45.47 756.09,30.00 758.26,30.00 760.42,30.00 762.59,45.75 764.75,30.00 766.91,45.33 769.08,31.69 771.24,30.00 773.41,31.55 775.57,30.28 777.74,45.89 779.90,45.05 782.06,60.66 784.23,30.00 786.39,30.00 788.56,30.00 790.72,30.98 792.89,44.49 795.05,30.28 797.21,30.00 799.38,30.00 801.54,30.00 803.71,30.28 805.87,30.28 808.04,30.56 810.20,62.35 812.36,60.10 814.53,30.56 816.69,30.00 818.86,30.00 821.02,30.00 823.19,30.42 825.35,44.49 827.52,44.34 829.68,31.27 831.84,30.00 834.01,30.56 836.17,30.56 838.34,30.00 840.50,30.28 842.67,30.56 844.83,60.24 846.99,30.28 849.16,45.19 851.32,30.00 853.49,30.00 855.65,30.28 857.82,45.89 859.98,30.14 862.14,30.14 864.31,59.53 866.47,61.08 868.64,47.16 870.80,90.90 872.97,30.00 875.13,45.05 877.29,30.28 879.46,44.49 881.62,30.00 883.79,59.67 885.95,31.55 888.12,30.00 890.28,30.00 892.44,45.75 894.61,30.00 896.77,31.13 898.94,30.00 901.10,30.00 903.27,30.00 905.43,30.00 907.60,30.00 909.76,30.00 911.92,30.56 914.09,30.28 916.25,30.00 918.42,30.84 920.58,30.00 922.75,76.41 924.91,30.00 927.07,30.56 929.24,30.14 931.40,30.00 933.57,30.00 935.73,30.28 937.90,30.00 940.06,45.47 942.22,30.00 944.39,30.00 946.55,30.14 948.72,30.56 950.88,30.28 953.05,30.84 955.21,30.70 957.37,44.63 959.54,30.28 961.70,30.56 963.87,74.86 966.03,30.28 968.20,30.00 970.36,30.28 972.53,30.00 974.69,30.00 976.85,30.00 979.02,30.28 981.18,45.61 983.35,30.28 985.51,30.28 987.68,44.34 989.84,30.56 992.00,30.28 994.17,30.00 996.33,30.14 998.50,30.00 1000.66,30.28 1002.83,30.28 1004.99,30.00 1007.15,30.42 1009.32,30.42 1011.48,44.91 1013.65,30.70 1015.81,45.89 1017.98,44.06 1020.14,30.00 1022.30,30.00 1024.47,31.27 1026.63,31.13 1028.80,30.00 1030.96,45.47 1033.13,30.98 1035.29,30.28 1037.45,30.28 1039.62,60.10 1041.78,30.00 1043.95,30.00 1046.11,44.77 1048.28,60.24 1050.44,45.05 1052.61,30.00 1054.77,44.77 1056.93,60.80 1059.10,45.75 1061.26,30.00 1063.43,45.47 1065.59,30.28 1067.76,30.00 1069.92,30.00 1072.08,30.00 1074.25,30.00 1076.41,30.28 1078.58,30.00 1080.74,30.84 1082.91,30.00 1085.07,30.00 1087.23,30.00 1089.40,31.41 1091.56,31.13 1093.73,75.99 1095.89,30.00 1098.06,30.00 1100.22,30.70 1102.38,30.00 1104.55,60.66 1106.71,60.24 1108.88,30.28 1111.04,30.70 1113.21,45.33 1115.37,30.28 1117.54,30.00 1119.70,30.00 1121.86,30.14 1124.03,30.00 1126.19,30.28 1128.36,30.00 1130.52,30.28 1132.69,30.00 1134.85,30.56 1137.01,30.56 1139.18,45.89 1141.34,30.14 1143.51,30.00 1145.67,44.34 1147.84,44.34 1150.00,74.16" fill="none" stroke="#8ecae6" stroke-width="1" opacity="0.5"/>
  <polyline points="70.00,410.00 72.16,45.05 74.33,44.06 76.49,93.29 78.66,53.77 80.82,41.25 82.99,94.27 85.15,41.11 87.31,117.48 89.48,36.61 91.64,63.89 93.81,46.17 95.97,38.72 98.14,50.81 100.30,39.28 102.46,93.01 104.63,42.09 106.79,71.49 108.96,44.06 111.12,98.49 113.29,40.41 115.45,41.53 117.62,43.64 119.78,36.75 121.94,67.41 124.11,42.80 126.27,40.13 128.44,50.81 130.60,40.13 132.77,56.02 134.93,41.39 137.09,35.20 139.26,35.63 141.42,39.00 143.59,38.30 145.75,34.78 147.92,74.30 150.08,57.14 152.24,38.58 154.41,94.55 156.57,38.72 158.74,37.17 160.90,64.88 163.07,35.91 165.23,37.17 167.39,48.00 169.56,38.30 171.72,35.63 173.89,35.63 176.05,32.67 178.22,36.47 180.38,55.46 182.55,32.95 184.71,34.78 186.87,35.20 189.04,37.74 191.20,34.22 193.37,36.33 195.53,35.34 197.70,34.50 199.86,55.17 202.02,36.47 204.19,51.52 206.35,34.08 208.52,34.50 210.68,37.17 212.85,33.52 215.01,35.48 217.17,35.06 219.34,47.44 221.50,40.41 223.67,32.25 225.83,37.03 228.00,34.08 230.16,67.83 232.32,35.48 234.49,34.22 236.65,35.77 238.82,34.22 240.98,52.22 243.15,40.69 245.31,32.95 247.47,55.03 249.64,35.91 251.80,48.56 253.97,32.95 256.13,37.88 258.30,35.63 260.46,34.08 262.63,33.66 264.79,35.20 266.95,31.97 269.12,33.66 271.28,36.75 273.45,32.95 275.61,33.38 277.78,32.95 279.94,34.64 282.10,31.13 284.27,40.13 286.43,33.66 288.60,33.94 290.76,33.09 292.93,33.09 295.09,31.83 297.25,32.53 299.42,34.22 301.58,34.08 303.75,31.97 305.91,52.36 308.08,35.63 310.24,33.66 312.40,33.80 314.57,33.66 316.73,36.47 318.90,33.66 321.06,35.91 323.23,33.23 325.39,52.50 327.56,31.41 329.72,32.53 331.88,36.47 334.05,31.97 336.21,31.41 338.38,34.08 340.54,32.39 342.71,35.63 344.87,33.38 347.03,31.97 349.20,31.69 351.36,33.38 353.53,33.09 355.69,33.09 357.86,32.11 360.02,32.53 362.18,33.38 364.35,33.80 366.51,32.25 368.68,32.25 370.84,32.39 373.01,49.27 375.17,32.39 377.33,33.80 379.50,32.39 381.66,33.52 383.83,46.88 385.99,31.97 388.16,31.69 390.32,32.53 392.48,31.13 394.65,46.03 396.81,31.41 398.98,31.97 401.14,30.84 403.31,33.94 405.47,31.97 407.64,45.75 409.80,30.84 411.96,31.97 414.13,33.38 416.29,32.25 418.46,32.81 420.62,32.39 422.79,32.81 424.95,31.27 427.11,31.97 429.28,36.19 431.44,33.23 433.61,34.36 435.77,46.45 437.94,31.83 440.10,30.28 442.26,45.19 444.43,32.95 446.59,31.13 448.76,31.41 450.92,31.41 453.09,32.95 455.25,30.84 457.41,31.41 459.58,32.25 461.74,31.27 463.91,32.81 466.07,30.28 468.24,31.41 470.40,31.41 472.57,46.31 474.73,30.84 476.89,32.11 479.06,30.42 481.22,32.81 483.39,32.25 485.55,30.70 487.72,30.84 489.88,30.56 492.04,31.69 494.21,30.84 496.37,31.13 498.54,31.27 500.70,31.13 502.87,30.56 505.03,31.27 507.19,32.11 509.36,31.13 511.52,31.13 513.69,31.97 515.85,32.25 518.02,30.28 520.18,32.11 522.34,31.83 524.51,31.97 526.67,30.70 528.84,30.28 531.00,31.41 533.17,30.56 535.33,30.56 537.49,31.13 539.66,31.13 541.82,31.13 543.99,30.70 546.15,30.56 548.32,30.56 550.48,30.84 552.65,30.56 554.81,30.56 556.97,31.69 559.14,30.28 561.30,30.98 563.47,30.28 565.63,30.84 567.80,30.56 569.96,30.84 572.12,31.41 574.29,31.69 576.45,30.84 578.62,31.83 580.78,45.75 582.95,31.13 585.11,31.83 587.27,31.13 589.44,31.55 591.60,30.98 593.77,30.98 595.93,47.44 598.10,30.56 600.26,31.97 602.42,31.69 604.59,30.56 606.75,45.19 608.92,30.56 611.08,31.27 613.25,31.13 615.41,31.27 617.58,30.98 619.74,31.97 621.90,30.84 624.07,31.97 626.23,31.13 628.40,30.98 630.56,45.33 632.73,31.41 634.89,30.84 637.05,30.56 639.22,32.11 641.38,31.97 643.55,30.84 645.71,31.69 647.88,31.13 650.04,31.13 652.20,31.13 654.37,31.97 656.53,32.11 658.70,31.83 660.86,30.84 663.03,31.27 665.19,30.56 667.35,30.84 669.52,30.70 671.68,30.84 673.85,31.13 676.01,30.84 678.18,31.13 680.34,30.98 682.51,31.13 684.67,31.97 686.83,31.83 689.00,31.55 691.16,31.69 693.33,30.56 695.49,30.56 697.66,30.84 699.82,31.13 701.98,30.84 704.15,31.41 706.31,30.56 708.48,30.42 710.64,32.11 712.81,31.27 714.97,32.81 717.13,31.13 719.30,30.98 721.46,44.77 723.63,30.84 725.79,31.55 727.96,30.84 730.12,30.28 732.28,30.98 734.45,47.86 736.61,30.84 738.78,31.13 740.94,31.83 743.11,31.13 745.27,30.84 747.43,30.56 749.60,30.56 751.76,30.84 753.93,30.70 756.09,30.70 758.26,46.03 760.42,44.77 762.59,32.81 764.75,31.27 766.91,31.55 769.08,31.55 771.24,30.84 773.41,30.70 775.57,31.13 777.74,31.13 779.90,30.56 782.06,30.56 784.23,31.27 786.39,30.56 788.56,30.84 790.72,31.13 792.89,30.56 795.05,32.53 797.21,30.84 799.38,30.56 801.54,44.91 803.71,30.84 805.87,30.56 808.04,30.28 810.20,30.84 812.36,30.70 814.53,30.56 816.69,31.41 818.86,30.56 821.02,31.27 823.19,44.77 825.35,30.56 827.52,30.84 829.68,30.84 831.84,30.84 834.01,30.56 836.17,30.56 838.34,30.84 840.50,30.84 842.67,31.41 844.83,47.16 846.99,31.27 849.16,30.84 851.32,45.75 853.49,30.56 855.65,30.56 857.82,30.56 859.98,30.56 862.14,30.84 864.31,31.13 866.47,30.28 868.64,30.56 870.80,30.56 872.97,30.84 875.13,30.28 877.29,30.28 879.46,30.42 881.62,30.28 883.79,30.28 885.95,30.28 888.12,30.56 890.28,30.84 892.44,30.28 894.61,30.28 896.77,31.41 898.94,31.27 901.10,30.42 903.27,30.28 905.43,30.56 907.60,30.56 909.76,30.56 911.92,30.56 914.09,30.56 916.25,30.56 918.42,30.70 920.58,30.84 922.75,30.98 924.91,30.28 927.07,30.28 929.24,30.98 931.40,31.27 933.57,30.70 935.73,30.84 937.90,31.13 940.06,30.56 942.22,30.56 944.39,30.98 946.55,31.13 948.72,31.13 950.88,30.84 953.05,30.56 955.21,30.56 957.37,30.56 959.54,30.98 961.70,30.84 963.87,31.27 966.03,30.56 968.20,30.98 970.36,31.13 972.53,30.56 974.69,31.13 976.85,30.98 979.02,30.28 981.18,31.13 983.35,30.56 985.51,31.41 987.68,30.56 989.84,44.91 992.00,30.84 994.17,31.13 996.33,30.56 998.50,30.84 1000.66,30.56 1002.83,30.84 1004.99,30.56 1007.15,30.70 1009.32,30.98 1011.48,30.56 1013.65,30.98 1015.81,31.13 1017.98,30.70 1020.14,44.91 1022.30,30.56 1024.47,30.70 1026.63,30.84 1028.80,44.91 1030.96,30.56 1033.13,30.56 1035.29,30.70 1037.45,31.13 1039.62,30.56 1041.78,30.84 1043.95,30.70 1046.11,30.56 1048.28,31.13 1050.44,30.84 1052.61,44.63 1054.77,30.70 1056.93,30.70 1059.10,30.98 1061.26,30.98 1063.43,30.56 1065.59,30.84 1067.76,30.56 1069.92,30.56 1072.08,30.84 1074.25,30.56 1076.41,30.70 1078.58,30.56 1080.74,31.27 1082.91,30.84 1085.07,30.84 1087.23,30.70 1089.40,30.56 1091.56,30.84 1093.73,30.56 1095.89,30.98 1098.06,30.70 1100.22,31.41 1102.38,30.70 1104.55,30.56 1106.71,31.83 1108.88,30.56 1111.04,30.98 1113.21,31.27 1115.37,30.56 1117.54,30.84 1119.70,30.84 1121.86,30.84 1124.03,30.98 1126.19,30.84 1128.36,30.70 1130.52,30.84 1132.69,30.56 1134.85,30.84 1137.01,30.84 1139.18,30.56 1141.34,30.56 1143.51,31.27 1145.67,30.70 1147.84,30.84 1150.00,30.56" fill="none" stroke="#ffb4a2" stroke-width="1" opacity="0.5"/>
  <polyline points="70.00,330.96 72.16,191.73 74.33,164.82 76.49,150.91 78.66,137.87 80.82,122.77 82.99,112.37 85.15,103.78 87.31,102.26 89.48,100.47 91.64,95.00 93.81,92.43 95.97,90.11 98.14,86.33 100.30,83.36 102.46,83.32 104.63,81.27 106.79,78.88 108.96,76.76 111.12,75.07 113.29,60.60 115.45,61.06 117.62,57.74 119.78,54.23 121.94,51.65 124.11,51.35 126.27,50.70 128.44,52.89 130.60,51.39 132.77,48.85 134.93,48.75 137.09,47.14 139.26,47.02 141.42,47.74 143.59,47.54 145.75,45.44 147.92,44.62 150.08,47.20 152.24,48.74 154.41,49.39 156.57,49.20 158.74,47.78 160.90,49.01 163.07,49.65 165.23,49.57 167.39,49.43 169.56,49.56 171.72,47.09 173.89,45.73 176.05,45.68 178.22,47.33 180.38,47.52 182.55,46.19 184.71,45.20 186.87,45.27 189.04,44.98 191.20,45.13 193.37,44.76 195.53,43.30 197.70,42.13 199.86,42.78 202.02,43.09 204.19,41.26 206.35,41.31 208.52,41.37 210.68,41.29 212.85,40.94 215.01,40.67 217.17,41.53 219.34,41.67 221.50,39.68 223.67,39.58 225.83,39.50 228.00,41.36 230.16,41.16 232.32,41.12 234.49,41.83 236.65,39.36 238.82,39.04 240.98,39.16 243.15,39.04 245.31,40.52 247.47,40.53 249.64,39.59 251.80,39.70 253.97,40.36 256.13,40.41 258.30,40.41 260.46,40.27 262.63,40.06 264.79,40.88 266.95,40.93 269.12,41.88 271.28,40.88 273.45,40.80 275.61,41.60 277.78,40.72 279.94,40.81 282.10,40.66 284.27,40.53 286.43,39.87 288.60,38.03 290.76,38.07 292.93,38.71 295.09,38.61 297.25,38.38 299.42,39.36 301.58,40.10 303.75,39.42 305.91,39.42 308.08,38.63 310.24,39.18 312.40,39.91 314.57,39.06 316.73,39.01 318.90,38.96 321.06,38.99 323.23,38.90 325.39,38.90 327.56,38.94 329.72,38.86 331.88,40.48 334.05,40.34 336.21,39.59 338.38,40.96 340.54,40.25 342.71,39.32 344.87,39.29 347.03,39.25 349.20,40.11 351.36,40.06 353.53,39.32 355.69,38.56 357.86,38.49 360.02,38.44 362.18,37.60 364.35,37.57 366.51,37.52 368.68,37.66 370.84,37.60 373.01,37.53 375.17,35.98 377.33,37.47 379.50,37.50 381.66,36.00 383.83,36.98 385.99,36.84 388.16,36.78 390.32,36.73 392.48,35.88 394.65,35.88 396.81,35.92 398.98,35.07 401.14,35.06 403.31,35.13 405.47,35.11 407.64,35.20 409.80,35.16 411.96,35.76 414.13,35.76 416.29,35.75 418.46,35.61 420.62,34.87 422.79,34.80 424.95,34.87 427.11,33.97 429.28,33.90 431.44,33.23 433.61,33.22 435.77,33.24 437.94,33.25 440.10,33.28 442.26,33.16 444.43,33.23 446.59,33.08 448.76,33.08 450.92,32.92 453.09,32.90 455.25,32.29 457.41,32.36 459.58,32.39 461.74,33.88 463.91,33.22 466.07,33.21 468.24,33.12 470.40,33.03 472.57,33.07 474.73,33.10 476.89,33.07 479.06,33.04 481.22,33.12 483.39,33.04 485.55,33.12 487.72,33.83 489.88,33.95 492.04,33.98 494.21,34.75 496.37,35.53 498.54,36.15 500.70,36.03 502.87,37.47 505.03,36.08 507.19,36.79 509.36,36.78 511.52,36.91 513.69,36.89 515.85,36.86 518.02,37.57 520.18,37.52 522.34,38.16 524.51,38.10 526.67,38.07 528.84,38.00 531.00,37.22 533.17,37.12 535.33,37.83 537.49,37.12 539.66,37.14 541.82,36.58 543.99,36.55 546.15,34.99 548.32,34.88 550.48,34.06 552.65,34.09 554.81,33.97 556.97,33.92 559.14,34.00 561.30,33.14 563.47,34.73 565.63,34.94 567.80,34.87 569.96,35.70 572.12,36.48 574.29,37.24 576.45,37.32 578.62,37.29 580.78,37.26 582.95,36.46 585.11,36.24 587.27,36.22 589.44,36.31 591.60,36.30 593.77,36.29 595.93,36.26 598.10,36.23 600.26,36.23 602.42,36.22 604.59,36.22 606.75,34.66 608.92,33.77 611.08,33.83 613.25,33.02 615.41,32.21 617.58,31.44 619.74,31.38 621.90,30.63 624.07,30.56 626.23,30.53 628.40,30.58 630.56,30.58 632.73,30.51 634.89,30.58 637.05,31.31 639.22,32.06 641.38,32.10 643.55,32.84 645.71,32.74 647.88,32.75 650.04,33.53 652.20,34.28 654.37,34.23 656.53,34.20 658.70,34.19 660.86,34.21 663.03,35.75 665.19,35.70 667.35,35.75 669.52,35.75 671.68,35.70 673.85,35.70 676.01,35.65 678.18,36.28 680.34,35.54 682.51,34.77 684.67,34.79 686.83,34.06 689.00,34.06 691.16,34.77 693.33,33.99 695.49,33.32 697.66,34.04 699.82,35.56 701.98,35.59 704.15,37.12 706.31,35.54 708.48,35.56 710.64,35.51 712.81,35.51 714.97,35.56 717.13,35.58 719.30,35.61 721.46,34.89 723.63,34.88 725.79,35.65 727.96,35.62 730.12,36.31 732.28,36.31 734.45,35.62 736.61,37.74 738.78,37.71 740.94,36.96 743.11,35.45 745.27,35.46 747.43,34.63 749.60,34.63 751.76,34.62 753.93,35.39 756.09,35.39 758.26,35.35 760.42,35.32 762.59,36.08 764.75,36.08 766.91,36.85 769.08,36.15 771.24,36.14 773.41,35.51 775.57,35.53 777.74,36.29 779.90,34.92 782.06,36.37 784.23,36.37 786.39,36.36 788.56,36.31 790.72,35.65 792.89,36.36 795.05,36.37 797.21,35.60 799.38,35.60 801.54,35.60 803.71,35.61 805.87,34.84 808.04,34.87 810.20,35.72 812.36,37.14 814.53,37.17 816.69,37.09 818.86,37.07 821.02,36.28 823.19,35.55 825.35,34.74 827.52,35.46 829.68,35.52 831.84,35.52 834.01,35.50 836.17,34.80 838.34,34.79 840.50,34.80 842.67,34.83 844.83,36.34 846.99,36.34 849.16,37.09 851.32,37.06 853.49,35.44 855.65,33.95 857.82,34.72 859.98,34.73 862.14,34.73 864.31,36.21 866.47,37.74 868.64,37.88 870.80,40.20 872.97,40.14 875.13,40.89 877.29,40.88 879.46,41.57 881.62,41.57 883.79,43.04 885.95,43.09 888.12,41.58 890.28,41.57 892.44,41.60 894.61,41.60 896.77,41.65 898.94,41.64 901.10,40.84 903.27,40.84 905.43,40.83 907.60,39.35 909.76,37.80 911.92,36.97 914.09,33.94 916.25,33.94 918.42,33.23 920.58,33.21 922.75,34.81 924.91,34.81 927.07,33.35 929.24,33.28 931.40,33.28 933.57,33.28 935.73,32.51 937.90,32.51 940.06,33.23 942.22,33.23 944.39,33.23 946.55,33.23 948.72,33.26 950.88,33.28 953.05,33.32 955.21,33.33 957.37,34.04 959.54,34.06 961.70,34.04 963.87,36.29 966.03,33.98 968.20,33.98 970.36,33.97 972.53,33.96 974.69,33.96 976.85,33.96 979.02,33.96 981.18,34.74 983.35,33.98 985.51,33.99 987.68,34.71 989.84,34.73 992.00,34.72 994.17,34.70 996.33,34.67 998.50,34.63 1000.66,33.92 1002.83,33.92 1004.99,33.89 1007.15,31.67 1009.32,31.67 1011.48,32.42 1013.65,32.44 1015.81,33.23 1017.98,33.94 1020.14,33.94 1022.30,33.92 1024.47,33.21 1026.63,33.25 1028.80,33.23 1030.96,33.29 1033.13,33.31 1035.29,33.31 1037.45,33.33 1039.62,34.82 1041.78,34.82 1043.95,34.81 1046.11,35.53 1048.28,37.05 1050.44,37.78 1052.61,37.76 1054.77,37.75 1056.93,39.25 1059.10,39.25 1061.26,38.54 1063.43,39.32 1065.59,39.33 1067.76,39.27 1069.92,39.21 1072.08,39.21 1074.25,38.44 1076.41,38.40 1078.58,38.39 1080.74,38.42 1082.91,36.91 1085.07,36.91 1087.23,36.91 1089.40,36.24 1091.56,34.79 1093.73,36.34 1095.89,36.34 1098.06,35.60 1100.22,34.09 1102.38,33.30 1104.55,34.84 1106.71,35.58 1108.88,35.58 1111.04,35.61 1113.21,36.38 1115.37,36.39 1117.54,36.39 1119.70,36.38 1121.86,36.38 1124.03,36.34 1126.19,36.36 1128.36,36.36 1130.52,36.37 1132.69,36.30 1134.85,36.27 1137.01,34.00 1139.18,34.80 1141.34,34.80 1143.51,34.77 1145.67,35.48 1147.84,34.67 1150.00,35.37" fill="none" stroke="#0077b6" stroke-width="2.5"/>
  <polyline points="70.00,410.00 72.16,227.52 74.33,166.37 76.49,148.10 78.66,129.23 80.82,114.57 82.99,111.67 85.15,102.85 87.31,104.47 89.48,97.69 91.64,94.62 93.81,90.58 95.97,86.59 98.14,84.03 100.30,81.05 102.46,81.80 104.63,79.46 106.79,79.02 108.96,77.18 111.12,78.25 113.29,59.77 115.45,59.59 117.62,59.57 119.78,56.74 121.94,57.42 124.11,57.50 126.27,54.79 128.44,55.28 130.60,51.41 132.77,52.38 134.93,51.26 137.09,50.71 139.26,50.55 141.42,49.96 143.59,49.91 145.75,47.00 147.92,48.61 150.08,47.90 152.24,47.62 154.41,47.42 156.57,47.34 158.74,47.12 160.90,48.18 163.07,48.14 165.23,46.63 167.39,46.89 169.56,46.80 171.72,46.04 173.89,45.81 176.05,44.65 178.22,44.40 180.38,45.41 182.55,45.28 184.71,45.07 186.87,44.91 189.04,45.06 191.20,43.06 193.37,42.02 195.53,41.86 197.70,38.85 199.86,39.68 202.02,39.64 204.19,38.97 206.35,38.88 208.52,38.75 210.68,38.21 212.85,37.97 215.01,37.96 217.17,37.93 219.34,38.67 221.50,38.87 223.67,37.71 225.83,37.91 228.00,37.88 230.16,39.51 232.32,39.39 234.49,39.39 236.65,39.37 238.82,39.31 240.98,40.20 243.15,39.47 245.31,39.30 247.47,39.47 249.64,39.56 251.80,40.27 253.97,40.06 256.13,40.27 258.30,40.28 260.46,40.23 262.63,39.54 264.79,39.28 266.95,39.27 269.12,39.10 271.28,39.23 273.45,37.49 275.61,37.38 277.78,37.32 279.94,37.26 282.10,37.11 284.27,36.50 286.43,36.15 288.60,36.20 290.76,35.11 292.93,34.96 295.09,34.13 297.25,34.11 299.42,33.92 301.58,33.85 303.75,33.74 305.91,34.68 308.08,34.70 310.24,34.78 312.40,34.79 314.57,34.63 316.73,34.81 318.90,34.82 321.06,34.97 323.23,34.90 325.39,35.97 327.56,35.53 329.72,35.48 331.88,35.60 334.05,35.55 336.21,35.46 338.38,35.58 340.54,35.57 342.71,35.64 344.87,35.60 347.03,35.60 349.20,34.57 351.36,34.46 353.53,34.43 355.69,34.39 357.86,34.32 360.02,34.12 362.18,34.11 364.35,34.00 366.51,33.95 368.68,32.94 370.84,32.99 373.01,33.83 375.17,33.62 377.33,33.71 379.50,33.76 381.66,33.73 383.83,34.46 385.99,34.28 388.16,34.19 390.32,34.22 392.48,34.19 394.65,34.82 396.81,34.74 398.98,34.68 401.14,34.62 403.31,34.69 405.47,34.62 407.64,35.22 409.80,35.15 411.96,35.13 414.13,35.18 416.29,34.33 418.46,34.35 420.62,34.28 422.79,34.30 424.95,34.19 427.11,33.45 429.28,33.66 431.44,33.73 433.61,33.83 435.77,34.59 437.94,33.88 440.10,33.83 442.26,34.49 444.43,34.59 446.59,34.45 448.76,34.42 450.92,33.71 453.09,33.81 455.25,33.75 457.41,33.66 459.58,33.66 461.74,33.58 463.91,33.60 466.07,33.47 468.24,33.48 470.40,33.45 472.57,33.96 474.73,33.84 476.89,33.73 479.06,32.93 481.22,32.97 483.39,33.07 485.55,32.35 487.72,32.24 489.88,32.22 492.04,32.23 494.21,32.20 496.37,32.11 498.54,32.13 500.70,32.12 502.87,32.03 505.03,32.03 507.19,32.00 509.36,32.04 511.52,32.03 513.69,32.05 515.85,31.35 518.02,31.32 520.18,31.32 522.34,31.39 524.51,31.35 526.67,31.27 528.84,31.25 531.00,31.28 533.17,31.28 535.33,31.22 537.49,31.24 539.66,31.24 541.82,31.23 543.99,31.21 546.15,31.21 548.32,31.17 550.48,31.11 552.65,31.08 554.81,31.05 556.97,31.04 559.14,30.94 561.30,30.98 563.47,30.89 565.63,30.84 567.80,30.77 569.96,30.77 572.12,30.83 574.29,30.84 576.45,30.86 578.62,30.92 580.78,31.65 582.95,31.65 585.11,31.69 587.27,31.71 589.44,31.76 591.60,31.78 593.77,31.79 595.93,32.63 598.10,32.63 600.26,32.64 602.42,32.71 604.59,32.69 606.75,33.44 608.92,33.42 611.08,33.46 613.25,33.47 615.41,33.47 617.58,33.43 619.74,33.49 621.90,33.44 624.07,32.75 626.23,32.75 628.40,32.71 630.56,33.42 632.73,33.41 634.89,33.40 637.05,33.38 639.22,32.62 641.38,32.69 643.55,32.63 645.71,32.63 647.88,32.66 650.04,31.95 652.20,31.98 654.37,32.02 656.53,32.07 658.70,32.10 660.86,32.09 663.03,32.05 665.19,32.04 667.35,31.98 669.52,31.96 671.68,31.95 673.85,31.24 676.01,31.22 678.18,31.23 680.34,31.25 682.51,31.20 684.67,31.20 686.83,31.25 689.00,31.24 691.16,31.27 693.33,31.24 695.49,31.22 697.66,31.16 699.82,31.11 701.98,31.06 704.15,31.09 706.31,31.05 708.48,31.05 710.64,31.11 712.81,31.14 714.97,31.24 717.13,31.24 719.30,31.24 721.46,31.93 723.63,31.92 725.79,31.94 727.96,31.88 730.12,31.81 732.28,31.78 734.45,32.59 736.61,32.60 738.78,32.63 740.94,32.68 743.11,32.68 745.27,32.68 747.43,32.64 749.60,32.64 751.76,32.66 753.93,32.59 756.09,32.56 758.26,33.22 760.42,33.90 762.59,33.99 764.75,33.32 766.91,33.35 769.08,33.35 771.24,33.35 773.41,33.38 775.57,33.38 777.74,32.55 779.90,32.53 782.06,32.50 784.23,32.48 786.39,32.45 788.56,32.45 790.72,32.48 792.89,32.48 795.05,32.56 797.21,32.57 799.38,32.56 801.54,32.50 803.71,31.81 805.87,31.69 808.04,31.65 810.20,31.61 812.36,31.57 814.53,31.55 816.69,31.59 818.86,31.56 821.02,31.57 823.19,32.28 825.35,32.28 827.52,32.26 829.68,32.27 831.84,32.27 834.01,32.24 836.17,32.24 838.34,32.16 840.50,32.16 842.67,32.20 844.83,32.31 846.99,32.33 849.16,32.35 851.32,33.12 853.49,33.11 855.65,33.10 857.82,33.10 859.98,33.06 862.14,33.07 864.31,33.07 866.47,32.34 868.64,32.34 870.80,32.33 872.97,32.33 875.13,32.30 877.29,32.29 879.46,32.28 881.62,32.25 883.79,32.22 885.95,32.17 888.12,31.34 890.28,31.31 892.44,31.29 894.61,30.51 896.77,30.56 898.94,30.59 901.10,30.58 903.27,30.57 905.43,30.56 907.60,30.53 909.76,30.54 911.92,30.54 914.09,30.54 916.25,30.53 918.42,30.55 920.58,30.58 922.75,30.60 924.91,30.60 927.07,30.60 929.24,30.64 931.40,30.68 933.57,30.67 935.73,30.70 937.90,30.74 940.06,30.70 942.22,30.66 944.39,30.69 946.55,30.73 948.72,30.76 950.88,30.77 953.05,30.77 955.21,30.77 957.37,30.77 959.54,30.79 961.70,30.80 963.87,30.82 966.03,30.80 968.20,30.84 970.36,30.88 972.53,30.86 974.69,30.85 976.85,30.86 979.02,30.84 981.18,30.84 983.35,30.84 985.51,30.88 987.68,30.86 989.84,31.55 992.00,31.53 994.17,31.55 996.33,31.55 998.50,31.56 1000.66,31.56 1002.83,31.55 1004.99,31.54 1007.15,31.51 1009.32,31.53 1011.48,31.51 1013.65,31.50 1015.81,31.53 1017.98,31.51 1020.14,32.21 1022.30,32.22 1024.47,32.20 1026.63,32.22 1028.80,32.89 1030.96,32.89 1033.13,32.17 1035.29,32.17 1037.45,32.17 1039.62,32.17 1041.78,32.17 1043.95,32.17 1046.11,32.16 1048.28,32.19 1050.44,32.19 1052.61,32.88 1054.77,32.88 1056.93,32.87 1059.10,32.86 1061.26,32.88 1063.43,32.16 1065.59,32.17 1067.76,32.17 1069.92,32.15 1072.08,31.45 1074.25,31.45 1076.41,31.46 1078.58,31.45 1080.74,31.46 1082.91,31.47 1085.07,31.47 1087.23,31.47 1089.40,31.47 1091.56,31.46 1093.73,31.44 1095.89,30.76 1098.06,30.76 1100.22,30.79 1102.38,30.78 1104.55,30.76 1106.71,30.82 1108.88,30.81 1111.04,30.83 1113.21,30.86 1115.37,30.85 1117.54,30.86 1119.70,30.87 1121.86,30.89 1124.03,30.87 1126.19,30.87 1128.36,30.86 1130.52,30.87 1132.69,30.87 1134.85,30.87 1137.01,30.89 1139.18,30.86 1141.34,30.86 1143.51,30.85 1145.67,30.85 1147.84,30.86 1150.00,30.80" fill="none" stroke="#e76f51" stroke-width="2.5"/>
  <text x="78" y="46" font-family="Consolas, monospace" font-size="12" fill="#333333">max=-13.0</text>
  <text x="78" y="404" font-family="Consolas, monospace" font-size="12" fill="#333333">min=-2715.0</text>
  <text x="980" y="48" font-family="Consolas, monospace" font-size="12" fill="#0077b6">Q-learning (MA)</text>
  <text x="980" y="66" font-family="Consolas, monospace" font-size="12" fill="#e76f51">SARSA (MA)</text>
</svg>